<?xml version="1.0" encoding="utf-8"?>
<!-- Generator: Adobe Illustrator 19.1.0, SVG Export Plug-In . SVG Version: 6.00 Build 0)  -->
<svg version="1.1" id="Layer_1" xmlns="http://www.w3.org/2000/svg" xmlns:xlink="http://www.w3.org/1999/xlink" x="0px" y="0px"
	 viewBox="0 0 14.8 31.6" enable-background="new 0 0 14.8 31.6" xml:space="preserve">
<g>
	<path id="Facebook_1_" fill="#FFFFFF" d="M3.2,6.1c0,0.8,0,4.4,0,4.4H0v5.3h3.2v15.8h6.6V15.8h4.4c0,0,0.4-2.6,0.6-5.3
		c-0.6,0-5,0-5,0s0-3.1,0-3.6c0-0.5,0.7-1.3,1.4-1.3c0.7,0,2.2,0,3.6,0c0-0.7,0-3.2,0-5.5c-1.8,0-3.9,0-4.9,0C3,0,3.2,5.3,3.2,6.1z"
		/>
</g>
</svg>
