<?xml version="1.0" encoding="utf-8"?>
<!-- Generator: Adobe Illustrator 19.1.0, SVG Export Plug-In . SVG Version: 6.00 Build 0)  -->
<svg version="1.1" id="Layer_1" xmlns="http://www.w3.org/2000/svg" xmlns:xlink="http://www.w3.org/1999/xlink" x="0px" y="0px"
	 viewBox="0 0 30.6 31.5" enable-background="new 0 0 30.6 31.5" xml:space="preserve">
<g>
	<g>
		<path fill="#FFFFFF" d="M19.9,0h-7.5C9.1,0,6.8,0.7,4.7,2.5C3,3.9,2.1,5.9,2.1,8c0,3.1,2.4,6.5,6.8,6.5c0.4,0,0.9,0,1.3-0.1
			l-0.1,0.1c-0.2,0.4-0.3,0.8-0.3,1.5c0,1.2,0.6,2,1.2,2.7l0.1,0.1l-0.1,0c-1.8,0.1-5.2,0.4-7.7,1.9c-2.9,1.7-3.2,4.3-3.2,5
			c0,2.9,2.7,5.9,8.8,5.9c7.1,0,10.8-3.9,10.8-7.8c0-2.9-1.7-4.3-3.4-5.8l-1.5-1.2c-0.5-0.4-1-0.9-1-1.7c0-0.9,0.6-1.4,1.1-1.9
			l0.1-0.1c1.6-1.3,3.5-2.7,3.5-5.8c0-3.1-2-4.8-2.9-5.5h2.5c0,0,0.1,0,0.1,0L20,0.3c0.1,0,0.1-0.1,0.1-0.2C20.1,0,20,0,19.9,0z
			 M10.8,29.8c-4.3,0-7.2-2-7.2-5c0-2,1.2-3.4,3.5-4.2c1.9-0.6,4.3-0.7,4.3-0.7c0.4,0,0.6,0,0.9,0c3,2.1,4.5,3.3,4.5,5.4
			C16.8,28.1,14.5,29.8,10.8,29.8z M10.8,13.3c-3.6,0-5.1-4.8-5.1-7.3c0-1.3,0.3-2.3,0.9-3c0.7-0.8,1.8-1.4,2.9-1.4
			c3.3,0,5.2,4.5,5.2,7.6c0,0.5,0,2-1,3C12.9,12.8,11.8,13.3,10.8,13.3z"/>
		<path fill="#FFFFFF" d="M30.5,14.7h-4v-3.9c0-0.1-0.1-0.2-0.2-0.2h-1.7c-0.1,0-0.2,0.1-0.2,0.2v3.9h-3.9c-0.1,0-0.2,0.1-0.2,0.2
			v1.7c0,0.1,0.1,0.2,0.2,0.2h3.9v4c0,0.1,0.1,0.2,0.2,0.2h1.7c0.1,0,0.2-0.1,0.2-0.2v-4h4c0.1,0,0.2-0.1,0.2-0.2v-1.7
			C30.6,14.8,30.5,14.7,30.5,14.7z"/>
	</g>
</g>
</svg>
