<?xml version="1.0" encoding="utf-8"?>
<!-- Generator: Adobe Illustrator 19.1.0, SVG Export Plug-In . SVG Version: 6.00 Build 0)  -->
<svg version="1.1" id="Layer_1" xmlns="http://www.w3.org/2000/svg" xmlns:xlink="http://www.w3.org/1999/xlink" x="0px" y="0px"
	 viewBox="0 0 384 384" enable-background="new 0 0 384 384" xml:space="preserve">
<g>
	<path fill="#FFFFFF" d="M0,345C0,243,0,141,0,39c0.3-0.8,0.6-1.6,0.7-2.5C4.7,17.9,16,6.2,34.3,1.2C35.9,0.8,37.4,0.4,39,0
		c102,0,204,0,306,0c0.7,0.2,1.4,0.6,2.1,0.7c18.8,3.8,30.7,15.1,35.7,33.6c0.4,1.6,0.8,3.1,1.2,4.7c0,102,0,204,0,306
		c-0.3,0.8-0.6,1.6-0.7,2.5c-3.3,17.8-16.7,31.8-34.3,35.5c-1.3,0.3-2.6,0.6-3.9,1c-102,0-204,0-306,0c-0.7-0.2-1.4-0.6-2.1-0.7
		c-18-3.2-31.7-16.2-35.8-34C0.8,347.9,0.4,346.4,0,345z M44.4,162.7c-0.1,1.4-0.2,2.7-0.2,3.9c0,52.2,0,104.5,0,156.7
		c0,10.4,6.1,16.5,16.6,16.5c87.5,0,175,0,262.5,0c10.5,0,16.5-6.1,16.5-16.5c0-52.1,0-104.2,0-156.3c0-1.3,0-2.7,0-4.2
		c-11.3,0-22.1,0-33.3,0c8.4,37.2,2.2,71.4-21.1,101.4c-23.3,30-54.6,45.4-92.7,45.9c-31.5,0.4-59.2-10.4-81.8-32.3
		c-32.7-31.7-42.9-70.5-33.5-115C66.3,162.7,55.5,162.7,44.4,162.7z M191.8,265.9c40.8,0.2,73.9-32.9,74-73.8
		c0.1-40.7-32.6-73.6-73.5-73.9c-40.7-0.4-73.9,32.6-74.2,73.6C117.9,232.5,150.9,265.7,191.8,265.9z M339.8,81.5
		c0-7.1,0-14.2,0-21.4c0-9.5-6.2-15.8-15.6-15.9c-14.2-0.1-28.5-0.1-42.7,0c-9.2,0-15.4,6-15.6,15.2c-0.2,14.5-0.2,29,0,43.5
		c0.1,9.2,6,15.1,15,15.3c14.6,0.2,29.2,0.2,43.9,0c9.2-0.1,15-6.5,15-15.7C339.8,95.5,339.8,88.5,339.8,81.5z"/>
</g>
</svg>
