<?xml version="1.0" encoding="utf-8"?>
<!-- Generator: Adobe Illustrator 19.1.0, SVG Export Plug-In . SVG Version: 6.00 Build 0)  -->
<svg version="1.1" id="Layer_1" xmlns="http://www.w3.org/2000/svg" xmlns:xlink="http://www.w3.org/1999/xlink" x="0px" y="0px"
	 viewBox="0 0 32.9 31.5" enable-background="new 0 0 32.9 31.5" xml:space="preserve">
<g>
	<path id="LinkedIn" fill="#FFFFFF" d="M32.9,19.3v12.2h-7.1V20.1c0-2.9-1-4.8-3.6-4.8c-2,0-3.1,1.3-3.6,2.6
		c-0.2,0.5-0.2,1.1-0.2,1.7v11.9h-7.1c0,0,0.1-19.2,0-21.2h7.1v3c0,0,0,0,0,0.1h0v-0.1c0.9-1.4,2.6-3.5,6.4-3.5
		C29.5,9.7,32.9,12.8,32.9,19.3z M4,0C1.6,0,0,1.6,0,3.7c0,2,1.5,3.7,3.9,3.7h0c2.5,0,4-1.6,4-3.7C7.9,1.6,6.4,0,4,0z M0.4,31.5h7.1
		V10.2H0.4V31.5z"/>
</g>
</svg>
