<?xml version="1.0" encoding="utf-8"?>
<!-- Generator: Adobe Illustrator 19.1.0, SVG Export Plug-In . SVG Version: 6.00 Build 0)  -->
<svg version="1.1" id="Layer_1" xmlns="http://www.w3.org/2000/svg" xmlns:xlink="http://www.w3.org/1999/xlink" x="0px" y="0px"
	 viewBox="0 0 39.1 31.7" enable-background="new 0 0 39.1 31.7" xml:space="preserve">
<g>
	<g>
		<path fill="#FFFFFF" d="M39.1,3.8c-1.4,0.6-3,1.1-4.6,1.3c1.7-1,2.9-2.6,3.5-4.4c-1.6,0.9-3.3,1.6-5.1,1.9C31.4,1,29.4,0,27.1,0
			c-4.4,0-8,3.6-8,8c0,0.6,0.1,1.2,0.2,1.8C12.6,9.5,6.7,6.3,2.7,1.5C2,2.6,1.6,4,1.6,5.5c0,2.8,1.4,5.2,3.6,6.7
			c-1.3,0-2.5-0.4-3.6-1v0.1c0,3.9,2.8,7.1,6.4,7.9c-0.7,0.2-1.4,0.3-2.1,0.3c-0.5,0-1-0.1-1.5-0.1c1,3.2,4,5.5,7.5,5.6
			c-2.7,2.1-6.2,3.4-10,3.4c-0.6,0-1.3,0-1.9-0.1c3.5,2.3,7.8,3.6,12.3,3.6c14.7,0,22.8-12.2,22.8-22.8l0-1
			C36.6,6.8,38,5.4,39.1,3.8z"/>
	</g>
</g>
</svg>
