<?xml version="1.0" encoding="utf-8"?>
<!-- Generator: Adobe Illustrator 19.1.0, SVG Export Plug-In . SVG Version: 6.00 Build 0)  -->
<svg version="1.1" id="Layer_1" xmlns="http://www.w3.org/2000/svg" xmlns:xlink="http://www.w3.org/1999/xlink" x="0px" y="0px"
	 viewBox="0 0 26.5 31.8" enable-background="new 0 0 26.5 31.8" xml:space="preserve">
<g>
	<path id="YouTube" fill="#FFFFFF" d="M22.4,23.2h-1.7l0-1c0-0.5,0.4-0.8,0.8-0.8h0.1c0.5,0,0.8,0.4,0.8,0.8L22.4,23.2z M15.9,21.1
		c-0.4,0-0.8,0.3-0.8,0.7v4.9c0,0.4,0.4,0.7,0.8,0.7c0.4,0,0.8-0.3,0.8-0.7v-4.9C16.7,21.4,16.3,21.1,15.9,21.1z M26.5,18.3v9.4
		c0,2.2-1.9,4.1-4.3,4.1H4.3c-2.4,0-4.3-1.8-4.3-4.1v-9.4c0-2.2,1.9-4.1,4.3-4.1h17.8C24.5,14.2,26.5,16.1,26.5,18.3z M5.5,28.7
		l0-9.9l2.2,0v-1.5l-5.9,0v1.4l1.8,0v9.9H5.5z M12.1,20.3h-1.8v5.3c0,0.8,0,1.1,0,1.3c-0.1,0.4-0.8,0.8-1.1,0c0-0.1,0-0.6,0-1.3
		l0-5.3H7.4l0,5.2c0,0.8,0,1.4,0,1.7c0,0.5,0,1,0.5,1.4c0.8,0.6,2.4-0.1,2.8-0.9l0,1.1l1.5,0L12.1,20.3L12.1,20.3z M18,26.3l0-4.4
		c0-1.7-1.3-2.7-3-1.3l0-3.3l-1.8,0l0,11.3l1.5,0l0.1-0.7C16.8,29.7,18,28.5,18,26.3z M23.8,25.8l-1.4,0c0,0.1,0,0.1,0,0.2v0.8
		c0,0.4-0.3,0.7-0.8,0.7h-0.3c-0.4,0-0.8-0.3-0.8-0.7v-0.1v-0.8v-1.1h3.2v-1.2c0-0.9,0-1.7-0.1-2.2c-0.2-1.6-2.4-1.8-3.5-1
		c-0.3,0.3-0.6,0.6-0.8,1c-0.2,0.5-0.2,1.1-0.2,1.9v2.6C19.1,30.1,24.4,29.5,23.8,25.8z M16.7,11.6c0.1,0.2,0.2,0.4,0.4,0.6
		c0.2,0.1,0.5,0.2,0.8,0.2c0.3,0,0.5-0.1,0.7-0.2c0.2-0.1,0.4-0.4,0.5-0.7l0,0.7h2.1V3.4h-1.6v6.8c0,0.4-0.3,0.7-0.7,0.7
		c-0.4,0-0.7-0.3-0.7-0.7V3.4h-1.7v5.9c0,0.7,0,1.2,0,1.5C16.6,11.1,16.6,11.3,16.7,11.6z M10.5,6.6c0-0.8,0.1-1.5,0.2-2
		c0.1-0.5,0.4-0.8,0.8-1.1c0.4-0.3,0.8-0.4,1.4-0.4c0.5,0,0.9,0.1,1.2,0.3c0.3,0.2,0.6,0.4,0.8,0.7C15,4.4,15.2,4.7,15.2,5
		c0.1,0.3,0.1,0.8,0.1,1.4v2.2c0,0.8,0,1.4-0.1,1.8c-0.1,0.4-0.2,0.7-0.4,1.1c-0.2,0.3-0.5,0.6-0.8,0.7c-0.3,0.2-0.7,0.2-1.1,0.2
		c-0.5,0-0.9-0.1-1.2-0.2c-0.3-0.1-0.6-0.3-0.8-0.6c-0.2-0.3-0.3-0.6-0.4-1c-0.1-0.4-0.1-1-0.1-1.7L10.5,6.6L10.5,6.6z M12.1,10.1
		c0,0.5,0.4,0.9,0.8,0.9c0.4,0,0.8-0.4,0.8-0.9V5.4c0-0.5-0.4-0.9-0.8-0.9c-0.4,0-0.8,0.4-0.8,0.9V10.1z M6.4,12.4h1.9l0-6.7L10.6,0
		H8.5L7.3,4.3L6.1,0H4l2.4,5.7L6.4,12.4z"/>
</g>
</svg>
